# xmcd CD database file
#
# Track frame offsets:
#	150
#	15937
#	30567
#	46795
#	59585
#	75762
#	96222
#	111880
#	135390
#	153840
#
# Disc length: 2385 seconds
#
# Revision: 0
# Processed by: cddbd v1.5.1PL0 Copyright (c) Steve Scherf et al.
# Submitted via: CDex 1.51
#
DISCID=65094f0a
DTITLE=The Mercy Brothers - Strange Adventure
DYEAR=2003
DGENRE=Blues
TTITLE0=Another Man Done Gone
TTITLE1=Stay Away From My Door
TTITLE2=Down That Road
TTITLE3=I Believe I'll Make a Change
TTITLE4=The New Year Blues
TTITLE5=Broke Down Engine
TTITLE6=Working On the Line
TTITLE7=Night Train to Memphis
TTITLE8=Misery Train
TTITLE9=Mr. Johnson
EXTD=YEAR: 2003
EXTT0=
EXTT1=
EXTT2=
EXTT3=
EXTT4=
EXTT5=
EXTT6=
EXTT7=
EXTT8=
EXTT9=
PLAYORDER=
